<?xml version="1.0" encoding="utf-8"?>
<!-- Generator: Adobe Illustrator 18.0.0, SVG Export Plug-In . SVG Version: 6.00 Build 0)  -->
<!DOCTYPE svg PUBLIC "-//W3C//DTD SVG 1.1//EN" "http://www.w3.org/Graphics/SVG/1.1/DTD/svg11.dtd">
<svg version="1.1" id="Layer_1" xmlns="http://www.w3.org/2000/svg" xmlns:xlink="http://www.w3.org/1999/xlink" x="0px" y="0px"
	 viewBox="0 0 56.3 68.1" enable-background="new 0 0 56.3 68.1" xml:space="preserve">
<path fill="#4E4F50" d="M48.4,27.6h-1.5v-6.9c0-10.3-8.3-18.7-18.6-18.7C18,1.9,9.6,10.3,9.6,20.7v6.9H8.1c-3.1,0-5.7,2.6-5.7,5.7
	v27.1c0,3.2,2.5,5.7,5.7,5.7h40.3c3.1,0,5.7-2.6,5.7-5.7V33.3C54,30.1,51.5,27.6,48.4,27.6z M30.6,47.2v3.5c0,0.5-0.4,1-1,1h-2.8
	c-0.5,0-0.9-0.4-0.9-1v-3.5c-1.3-0.8-2.2-2.2-2.2-3.9c0-2.5,2-4.6,4.5-4.6c2.5,0,4.5,2,4.5,4.6C32.8,45,31.9,46.4,30.6,47.2z
	 M38.7,27.6H17.8v-6.9c0-5.8,4.7-10.5,10.4-10.5c5.8,0,10.4,4.7,10.4,10.5V27.6z"/>
</svg>
